<?xml version="1.0" standalone="no"?>
<!DOCTYPE svg PUBLIC "-//W3C//DTD SVG 20010904//EN"
 "http://www.w3.org/TR/2001/REC-SVG-20010904/DTD/svg10.dtd">
<svg version="1.0" xmlns="http://www.w3.org/2000/svg"
 width="260.000000pt" height="260.000000pt" viewBox="0 0 260.000000 260.000000"
 preserveAspectRatio="xMidYMid meet">
<metadata>
Created by potrace 1.11, written by Peter Selinger 2001-2013
</metadata>
<g transform="translate(0.000000,260.000000) scale(0.100000,-0.100000)"
fill="#000000" stroke="none">
<path d="M440 1365 l0 -655 80 0 80 0 0 -80 0 -80 330 0 330 0 0 80 0 80 80 0
80 0 0 655 0 655 -165 0 -165 0 0 -650 0 -650 -160 0 -160 0 0 650 0 650 -165
0 -165 0 0 -655z"/>
<path d="M1660 1945 l0 -75 70 0 70 0 0 -580 0 -580 -70 0 -70 0 0 -75 0 -75
230 0 230 0 0 75 0 75 -75 0 -75 0 0 580 0 580 75 0 75 0 0 75 0 75 -230 0
-230 0 0 -75z"/>
</g>
</svg>
