<?xml version="1.0" encoding="UTF-8" standalone="no"?>
<svg
   xmlns:dc="http://purl.org/dc/elements/1.1/"
   xmlns:cc="http://creativecommons.org/ns#"
   xmlns:rdf="http://www.w3.org/1999/02/22-rdf-syntax-ns#"
   xmlns:svg="http://www.w3.org/2000/svg"
   xmlns="http://www.w3.org/2000/svg"
   viewBox="0 0 65.919334 65.921867"
   height="65.921867"
   width="65.919334"
   xml:space="preserve"
   id="svg2"
   version="1.1"><metadata
     id="metadata8"><rdf:RDF><cc:Work
         rdf:about=""><dc:format>image/svg+xml</dc:format><dc:type
           rdf:resource="http://purl.org/dc/dcmitype/StillImage" /></cc:Work></rdf:RDF></metadata><defs
     id="defs6"><clipPath
       id="clipPath18"
       clipPathUnits="userSpaceOnUse"><path
         id="path16"
         d="M 0,49.441 H 49.439 V 0 H 0 Z" /></clipPath></defs><g
     transform="matrix(1.3333333,0,0,-1.3333333,0,65.921867)"
     id="g10"><g
       id="g12"><g
         clip-path="url(#clipPath18)"
         id="g14"><g
           transform="translate(36.5166,7.2109)"
           id="g20"><path
             id="path22"
             style="fill:#231f20;fill-opacity:1;fill-rule:evenodd;stroke:none"
             d="M 0,0 C -0.215,1.275 -1.34,7.471 -4.109,15.08 2.706,16.17 8.611,14.301 9.047,14.158 8.107,8.275 4.74,3.201 0,0 m -11.796,-3.602 c -5.11,0 -9.796,1.817 -13.448,4.838 0.278,-0.224 0.473,-0.369 0.473,-0.369 0,0 4.046,8.826 16.567,13.188 0.046,0.017 0.093,0.031 0.14,0.045 2.97,-7.719 4.197,-14.184 4.509,-16.03 -2.532,-1.076 -5.318,-1.672 -8.241,-1.672 m -21.111,21.114 c 0,0.224 0.01,0.445 0.017,0.666 0.372,-0.008 10.804,-0.244 21.673,3.008 0.606,-1.184 1.184,-2.387 1.713,-3.588 -0.279,-0.078 -0.556,-0.162 -0.832,-0.252 -11.393,-3.682 -17.171,-13.934 -17.171,-13.934 0,0 0.007,-0.006 0.008,-0.01 -3.361,3.741 -5.408,8.686 -5.408,14.11 m 12.103,19.092 c 0.281,-0.377 4.185,-5.67 7.839,-12.165 -10.137,-2.693 -18.933,-2.587 -19.491,-2.578 1.372,6.539 5.765,11.961 11.652,14.743 m 3.951,1.404 c -10e-4,-0.002 -0.003,-0.004 -0.003,-0.004 0,0 -0.025,-0.006 -0.064,-0.014 0.022,0.006 0.045,0.01 0.067,0.018 M 2.146,33.354 c -0.051,-0.083 -3.058,-4.659 -11.027,-7.645 -3.608,6.631 -7.573,11.898 -7.89,12.316 1.595,0.387 3.259,0.596 4.975,0.596 5.345,0 10.223,-1.992 13.942,-5.267 M 9.308,17.721 c -0.306,0.066 -7.451,1.603 -14.704,0.691 -0.149,0.361 -0.299,0.725 -0.456,1.09 -0.439,1.033 -0.912,2.057 -1.403,3.062 8.337,3.403 11.722,8.297 11.762,8.356 2.961,-3.596 4.752,-8.19 4.801,-13.199 m 3.112,4.765 c -0.324,1.588 -0.811,3.153 -1.441,4.647 -0.62,1.467 -1.387,2.879 -2.28,4.199 -0.884,1.309 -1.899,2.539 -3.016,3.656 -1.119,1.119 -2.349,2.135 -3.658,3.018 -1.32,0.894 -2.734,1.66 -4.199,2.281 -1.493,0.629 -3.056,1.117 -4.645,1.44 -1.628,0.334 -3.303,0.503 -4.977,0.503 -1.676,0 -3.35,-0.169 -4.979,-0.503 -1.588,-0.323 -3.152,-0.811 -4.645,-1.44 -1.465,-0.621 -2.879,-1.387 -4.2,-2.281 -1.309,-0.883 -2.539,-1.899 -3.657,-3.018 -1.118,-1.117 -2.132,-2.347 -3.016,-3.656 -0.893,-1.32 -1.66,-2.732 -2.279,-4.199 -0.632,-1.494 -1.117,-3.059 -1.443,-4.647 -0.333,-1.625 -0.502,-3.3 -0.502,-4.974 0,-1.678 0.169,-3.354 0.502,-4.981 0.326,-1.588 0.811,-3.152 1.443,-4.644 0.619,-1.465 1.386,-2.881 2.279,-4.201 0.884,-1.309 1.898,-2.538 3.016,-3.657 1.118,-1.117 2.348,-2.131 3.657,-3.015 1.321,-0.893 2.735,-1.66 4.2,-2.28 1.493,-0.632 3.057,-1.115 4.645,-1.441 1.629,-0.336 3.303,-0.504 4.979,-0.504 1.674,0 3.349,0.168 4.977,0.504 1.589,0.326 3.152,0.809 4.645,1.441 1.465,0.62 2.879,1.387 4.199,2.28 1.309,0.884 2.539,1.898 3.658,3.015 1.117,1.119 2.132,2.348 3.016,3.657 0.893,1.32 1.66,2.736 2.28,4.201 0.63,1.492 1.117,3.056 1.441,4.644 0.334,1.627 0.503,3.303 0.503,4.981 0,1.674 -0.169,3.349 -0.503,4.974" /></g></g></g></g></svg>