<svg xmlns="http://www.w3.org/2000/svg" viewBox="0 0 48 38"><title>Монтажная область 1</title><g id="Camera_Icon" data-name="Camera Icon" style="isolation:isolate"><g id="Camera_Icon-2" data-name="Camera Icon"><path d="M44.08,6.4H36.33V3.3A3.1,3.1,0,0,0,33.22.2H14.61a3.1,3.1,0,0,0-3.1,3.1V6.4H3.75A3.1,3.1,0,0,0,.65,9.5V34.32a3.1,3.1,0,0,0,3.1,3.1H44.08a3.1,3.1,0,0,0,3.1-3.1V9.5A3.1,3.1,0,0,0,44.08,6.4ZM23.92,32A10.47,10.47,0,1,1,34.39,21.52,10.47,10.47,0,0,1,23.92,32Zm0-17.06a6.59,6.59,0,1,0,6.59,6.59A6.59,6.59,0,0,0,23.92,14.93Z" style="fill:#8e8d8d;fill-rule:evenodd"/></g></g></svg>