<?xml version="1.0" standalone="no"?>
<!DOCTYPE svg PUBLIC "-//W3C//DTD SVG 20010904//EN"
 "http://www.w3.org/TR/2001/REC-SVG-20010904/DTD/svg10.dtd">
<svg version="1.0" xmlns="http://www.w3.org/2000/svg"
 width="265.000000pt" height="265.000000pt" viewBox="0 0 265.000000 265.000000"
 preserveAspectRatio="xMidYMid meet">
<metadata>
Created by potrace 1.11, written by Peter Selinger 2001-2013
</metadata>
<g transform="translate(0.000000,265.000000) scale(0.100000,-0.100000)"
fill="#000000" stroke="none">
<path d="M369 2402 c-56 -37 -94 -75 -131 -131 l-28 -45 0 -906 0 -906 28 -45
c37 -56 75 -94 131 -131 l45 -28 906 0 906 0 45 28 c56 37 94 75 131 131 l28
45 0 906 0 906 -28 45 c-37 56 -75 94 -131 131 l-45 28 -906 0 -906 0 -45 -28z
m395 -532 c19 -20 43 -93 111 -345 48 -176 91 -326 94 -333 4 -7 52 126 106
295 125 391 119 378 160 397 41 20 115 21 159 2 41 -17 40 -14 167 -415 65
-205 96 -288 101 -275 4 11 46 161 94 334 68 249 91 320 110 340 23 24 30 25
142 25 104 0 117 -2 120 -18 2 -10 -74 -270 -170 -577 l-173 -560 -121 0 -121
0 -113 363 c-62 199 -115 366 -118 371 -3 5 -57 -157 -121 -360 l-117 -369
-121 -3 -121 -3 -16 48 c-8 26 -87 282 -176 567 -128 414 -158 522 -148 533 9
12 36 14 130 11 110 -3 119 -5 142 -28z"/>
</g>
</svg>
